# xmcd
#
# Track frame offsets: 
#        150
#        16220
#        35163
#        59275
#
# Disc length: 1139 seconds
#
# Revision: 4
# Processed by: cddbd v1.5PL3 Copyright (c) Steve Scherf et al.
# Submitted via: ExactAudioCopy v0.95a3
#
DISCID=2d047104
DTITLE=Rob'n' Raz - Clubhopping [MCD]
DYEAR=1993
DGENRE=Dance
TTITLE0=Clubhopping (Radio Edit)
TTITLE1=Clubhopping (Legacy Of Sound Radioremix)
TTITLE2=Clubhopping (Legacy Of Sound Remix)
TTITLE3=Clubhopping (Extended Version)
EXTD=
EXTT0=
EXTT1=
EXTT2=
EXTT3=
PLAYORDER=
